<svg width="22" height="22" viewBox="0 0 22 22" fill="none" xmlns="http://www.w3.org/2000/svg">
<g id="skype">
<path id="Vector" d="M15.4051 20.4893C14.5633 20.4893 13.7317 20.284 13.0013 19.8946L12.8883 19.8344L12.7629 19.8572C12.221 19.9562 11.6629 20.0068 11.1056 20.0068C6.12408 20.0068 2.07095 16.0123 2.07095 11.1019C2.07095 10.502 2.13255 9.89995 2.25355 9.31329L2.28288 9.17395L2.20955 9.05149C1.75195 8.28589 1.51068 7.41029 1.51068 6.51855C1.51068 3.75682 3.79208 1.51062 6.59708 1.51062C7.55848 1.51062 8.49421 1.77682 9.30308 2.27989L9.42041 2.35322L9.55828 2.33049C10.0687 2.24395 10.5893 2.19995 11.1056 2.19995C16.0879 2.19995 20.141 6.19369 20.141 11.1034C20.141 11.7509 20.0706 12.394 19.9313 13.0137L19.9027 13.142L19.9621 13.2594C20.3126 13.9494 20.4901 14.6974 20.4901 15.4814C20.4893 18.2424 18.2087 20.4893 15.4051 20.4893Z" fill="#7ACCFF"/>
<path id="Vector_2" d="M15.1976 14.8991C14.8214 15.4242 14.2655 15.84 13.5454 16.1348C12.8326 16.4266 11.9775 16.5755 11.0051 16.5755C9.83694 16.5755 8.8572 16.3731 8.0938 15.9734C7.54747 15.6823 7.09574 15.2878 6.75547 14.8016C6.4086 14.3102 6.23334 13.8226 6.23334 13.3518C6.23334 13.0584 6.34774 12.8032 6.57214 12.5942C6.7958 12.3882 7.08107 12.284 7.42134 12.284C7.70074 12.284 7.942 12.3662 8.1378 12.529C8.32627 12.6852 8.4854 12.9176 8.61374 13.2161C8.7582 13.5424 8.91514 13.816 9.08234 14.033C9.24074 14.2398 9.47027 14.4166 9.7636 14.5522C10.0584 14.6901 10.4551 14.7598 10.945 14.7598C11.6175 14.7598 12.1682 14.619 12.5818 14.3403C12.9866 14.0682 13.1839 13.7397 13.1839 13.3393C13.1839 13.0225 13.0812 12.7732 12.8707 12.5796C12.6485 12.375 12.3552 12.2158 12.0025 12.1073C11.6321 11.9936 11.1298 11.8712 10.5094 11.7421C9.66534 11.5632 8.94887 11.3527 8.37907 11.1136C7.7946 10.8687 7.32527 10.5299 6.98134 10.106C6.63227 9.67484 6.45554 9.13511 6.45554 8.49857C6.45554 7.89211 6.64107 7.34577 7.00847 6.87571C7.37074 6.40931 7.90314 6.04411 8.5866 5.79477C9.26054 5.54837 10.0635 5.42444 10.9714 5.42444C11.6981 5.42444 12.3369 5.50657 12.8707 5.67084C13.4053 5.83511 13.8585 6.05657 14.2127 6.33011C14.5713 6.60657 14.8361 6.90064 15.0033 7.20717C15.1719 7.51591 15.2577 7.82391 15.2577 8.12091C15.2577 8.40764 15.1463 8.66797 14.9241 8.89531C14.7019 9.12337 14.4203 9.23777 14.0895 9.23777C13.7881 9.23777 13.552 9.16591 13.3885 9.02364C13.2367 8.89091 13.0783 8.68337 12.903 8.38637C12.7006 8.00577 12.4549 7.70584 12.1733 7.49611C11.9005 7.29151 11.4422 7.18737 10.8152 7.18737C10.2322 7.18737 9.75847 7.30177 9.4072 7.52984C9.06694 7.7491 8.90194 8.00064 8.90194 8.29911C8.90194 8.48171 8.95547 8.63424 9.064 8.76551C9.1806 8.90337 9.3434 9.02657 9.54947 9.12777C9.7636 9.23337 9.98287 9.31844 10.2036 9.37784C10.4295 9.43944 10.8086 9.53184 11.3293 9.64991C11.9871 9.78924 12.5921 9.94471 13.1274 10.1126C13.6686 10.2842 14.1372 10.4947 14.5193 10.7396C14.9072 10.9897 15.2159 11.3109 15.4359 11.6937C15.6552 12.0787 15.7652 12.5539 15.7652 13.1068C15.7659 13.7698 15.5753 14.3718 15.1976 14.8991Z" fill="white"/>
</g>
</svg>
